<svg data-v-0dd9719b="" version="1.0" xmlns="http://www.w3.org/2000/svg" xmlns:xlink="http://www.w3.org/1999/xlink" width="100%" height="100%" viewBox="0 0 340.000000 250.000000" preserveAspectRatio="xMidYMid meet" color-interpolation-filters="sRGB" style="margin: auto;"> <rect data-v-0dd9719b="" x="0" y="0" width="100%" height="100%" fill="#0d0821" fill-opacity="1" class="background"></rect> <rect data-v-0dd9719b="" x="0" y="0" width="100%" height="100%" fill="url(#watermark)" fill-opacity="1" class="watermarklayer"></rect> <g data-v-0dd9719b="" fill="#ffffff" class="basesvg" transform="translate(117.52999877929688,101.37499809265137)"><g data-gra="path-name" fill-rule="" class="tp-name"><g transform="scale(1)"><g><path d="M53.08-1.16L47.35 4.18Q43.78 1.38 38.5-1.54L38.5-1.54Q36.41 1.93 32.78 4.46L32.78 4.46 25.96 0.49Q31.18-2.92 33.77-7.15L33.77-7.15 26.84-7.04Q26.95-27.89 27-29.92L27-29.92Q31.18-30.25 34.65-30.36L34.65-30.36Q34.98-32.34 35.26-34.65L35.26-34.65 27.28-34.54 27.17-41.63 32.17-41.58Q35.91-41.58 41.52-41.69 47.13-41.8 52.2-41.85L52.2-41.85 52.47-34.81 42.3-34.76Q42.13-32.29 41.91-30.52L41.91-30.52Q45.27-30.52 47.44-30.33 49.61-30.14 50.93-28.16L50.93-28.16Q52.52-25.57 52.52-18.32L52.52-18.32Q52.52-10.01 52.36-6.93L52.36-6.93 45.27-7.42Q45.59-15.35 45.59-16.72L45.59-16.72Q45.59-20.41 45.27-21.84L45.27-21.84Q44.77-23.93 42.73-23.93L42.73-23.93Q41.2-23.93 33.72-23.76L33.72-23.76 33.83-7.42Q35.97-10.84 36.52-18.21L36.52-18.21Q36.52-19.58 36.41-20.84L36.41-20.84 42.84-20.63Q42.9-18.86 42.9-17.38L42.9-17.38Q42.9-11.71 41.52-7.21L41.52-7.21Q47.41-4.84 53.08-1.16L53.08-1.16ZM21.5-23.59L15.84-20.73Q13.92-24.25 11.99-25.85L11.99-25.85Q10.84-23.54 9.35-21.61L9.35-21.61 2.42-25.14Q7.7-32.17 9.46-42.79L9.46-42.79 16.23-42.3Q16.17-41.09 16-40.26L16-40.26Q23.1-36.58 27.72-32.06L27.72-32.06 22.82-26.23Q18.75-30.64 14.74-33.16L14.74-33.16Q14.08-30.91 13.31-28.93L13.31-28.93 15.23-30.2Q18.54-27.83 21.5-23.59L21.5-23.59ZM24.97-1.32L19.2 4.24Q15.13-0.06 5.5-5L5.5-5 9.07-10.84Q12.71-9.46 15.79-7.37L15.79-7.37Q17.55-10.18 17.55-11.88L17.55-11.88Q17.55-12.48 17.19-13.04 16.83-13.59 15.51-13.59L15.51-13.59Q13.47-13.59 4.07-13.09L4.07-13.09 3.74-19.69Q11.82-20.24 15.89-20.24L15.89-20.24Q18.09-20.24 20.43-19.91 22.77-19.58 24.14-17.38L24.14-17.38Q25.25-15.68 25.25-13.53L25.25-13.53Q25.25-10.39 23.38-6.21L23.38-6.21Q22.82-5 22-3.79L22-3.79Q23.59-2.58 24.97-1.32L24.97-1.32ZM97.57-10.06L97.57-10.06Q97.57-6.6 97.35-0.55L97.35-0.55Q97.3 2.09 95.09 3.35L95.09 3.35Q93.61 4.07 91.13 4.07L91.13 4.07Q87.67 4.07 82.56 3.19L82.56 3.19 81.45-4.24Q84.15-3.41 87.45-3.41L87.45-3.41Q89.38-3.41 89.38-5.55L89.38-5.55 89.38-7.54Q89.38-8.86 88.16-9.35L88.16-9.35Q87.06-9.63 86.02-9.63L86.02-9.63Q84.64-9.63 81.78-9.68L81.78-9.68Q78.38 0.28 64.41 3.9L64.41 3.9 58.85-1.76Q70.02-4.46 72.71-9.02L72.71-9.02 67.76-8.91 67.76-10.45Q64.73-8.14 62.31-7.04L62.31-7.04 57.59-13.75Q62.76-15.79 67.48-19.47L67.48-19.47 57.64-19.41 57.37-27 58.63-27Q62.15-27 72.77-27.11L72.77-27.11Q73.64-28.32 74.31-29.75L74.31-29.75 59.56-29.59 59.29-36.74 64.41-36.74Q63.97-39.38 62.2-41.52L62.2-41.52 70.02-42.52Q72.22-39.71 72.88-36.85L72.88-36.85 76.72-36.91Q77.66-39.66 78.1-42.52L78.1-42.52 86.79-42.35Q86.13-39.66 85.25-37.02L85.25-37.02 90.2-37.13Q92.13-39.98 92.95-42.46L92.95-42.46 100.76-40.7Q99.99-39.38 98.45-37.23L98.45-37.23 103.56-37.29 104.06-30.2Q102.96-30.14 82.94-29.92L82.94-29.92Q82.34-28.55 81.73-27.17L81.73-27.17 106.53-27.72 107.19-20.07 98.72-19.96Q103.73-15.18 107.36-10.89L107.36-10.89 99.88-6.66Q98.94-8.03 97.57-10.06ZM74.97-15.95L74.97-15.95Q76.72-16 78.65-16.11L78.65-16.11Q90.64-16.5 93.17-15.23L93.17-15.23Q91.13-18.09 89.27-19.75L89.27-19.75 77.94-19.58Q76.84-18.04 74.97-15.95Z" transform="translate(-2.4200000762939453, 42.790000915527344)"></path></g> <!----> <!----> <!----> <!----> <!----> <!----> <!----></g></g> <!----></g><defs v-gra="od"></defs></svg>