<svg data-v-0dd9719b="" version="1.0" xmlns="http://www.w3.org/2000/svg" xmlns:xlink="http://www.w3.org/1999/xlink" width="100%" height="100%" viewBox="0 0 340.000000 250.000000" preserveAspectRatio="xMidYMid meet" color-interpolation-filters="sRGB" style="margin: auto;"> <rect data-v-0dd9719b="" x="0" y="0" width="100%" height="100%" fill="#fff" fill-opacity="1" class="background"></rect> <rect data-v-0dd9719b="" x="0" y="0" width="100%" height="100%" fill="url(#watermark)" fill-opacity="1" class="watermarklayer"></rect> <g data-v-0dd9719b="" fill="#333" class="icon-text-wrapper icon-svg-group iconsvg" transform="translate(81.18101042509079,79.73092651367188)"><g class="iconsvg-imagesvg" transform="translate(58.81999969482422,0)"><g><rect fill="#333" fill-opacity="0" stroke-width="2" x="0" y="0" width="60" height="59.940658747839635" class="image-rect"></rect> <svg x="0" y="0" width="60" height="59.940658747839635" filtersec="colorsb6618993558" class="image-svg-svg primary" style="overflow: visible;"><svg xmlns="http://www.w3.org/2000/svg" viewBox="-0.0025072097778320312 -0.00006103515625 153.71250915527344 153.56005859375"><path d="M53.34 153.56a20.42 20.42 0 0 1-2.86-1.95c-6-6-12-12-18-17.93-1.76-1.76-1.71-3.45 0-5.16q20.82-20.81 41.66-41.6c2-2 3.29-1.72 5.73.71l23.49 23.49 16.8 16.79c2.51 2.51 2.52 3.71 0 6.34-.43.45-.88.89-1.33 1.34-2.67 2.66-3.85 2.72-6.52.06q-16.21-16.18-32.42-32.44c-3.25-3.25-3.22-3.24-6.55.08q-12.6 12.61-25.21 25.2c-2.41 2.4-2.43 2.82 0 5.21 5.91 5.78 4.42 5.9 10.38 0 5.06-5 10-10.08 15.1-15.08 2.47-2.43 3.63-2.43 6.11 0q12.65 12.57 25.2 25.22c2.09 2.1 2.07 3.38.09 5.54-4.56 5-5.14 5-10 .16-5.34-5.35-10.75-10.64-16-16.05-1.79-1.84-3.08-1.84-4.89 0-5.77 5.95-11.66 11.77-17.56 17.58a29.05 29.05 0 0 1-3.22 2.49z" fill="#fdde19"></path><path d="M68 76.57a32.54 32.54 0 0 1-2.64 3.48Q50.51 95 35.6 109.84c-3.6 3.57-7.11 7.16-10.71 10.68-2.15 2.11-3.34 2.07-5.5 0-5-4.71-5-5.11-.11-10q15.6-15.53 31.15-31.08c2.71-2.71 2.71-3 .1-5.64Q37.66 61 24.76 48.1c-2.41-2.41-2.89-2.44-5.23 0-5.53 5.7-6 4.27-.14 10.19l15.24 15.28c2.46 2.48 2.51 3.55 0 6.08q-12.44 12.57-25 25c-2.48 2.48-3.57 2.43-6.11 0-4.64-4.41-4.64-4.89-.14-9.38q8.13-8.1 16.22-16.23c2.27-2.29 2.24-2.69-.08-5Q10.81 65.29 2 56.49C-.66 53.8-.68 52.66 2 50c5.6-5.61 11.18-11.22 16.82-16.78 2.82-2.78 3.92-2.75 6.73.06Q45.69 53.39 65.8 73.56a25.71 25.71 0 0 1 2.2 3.01z" fill="#f34242"></path><path d="M153.71 53.26a29.19 29.19 0 0 1-2.38 3.18c-5.76 5.83-11.57 11.61-17.36 17.4-2.59 2.6-2.64 2.88-.12 5.42 5.81 5.89 11.69 11.73 17.51 17.62 2.58 2.61 2.55 3.65-.07 6.28q-8.39 8.41-16.8 16.81c-2.77 2.76-3.83 2.8-6.5.13q-20.17-20.1-40.3-40.29c-2.7-2.7-2.68-3.75.06-6.5Q107.87 53.12 128 33c2.44-2.44 3.69-2.43 6.15-.11.53.49 1 1 1.54 1.52 2.6 2.75 2.58 3.91-.06 6.55l-32.44 32.45c-3.1 3.1-3.19 3.18 0 6.38 8.61 8.71 17.31 17.33 25.93 26 1.36 1.37 2.57 1.48 3.91.08 6.75-7 6.79-4.84.29-11.52-4.65-4.77-9.42-9.42-14.12-14.14-3.09-3.11-3-4.14.13-7.31q11.57-11.53 23.11-23.1c4.13-4.14 4.65-4.16 8.8.14a37 37 0 0 1 2.47 3.32z" fill="#47b3e3"></path><path d="M46.79 6.78C47.09 4.39 51.33 0 53 .13a5.76 5.76 0 0 1 3.18 1.62C62.17 7.6 68.06 13.54 74 19.44c2.43 2.4 2.86 2.42 5.26 0Q88 10.83 96.62 2.1c2.78-2.79 4-2.79 6.72-.06l16.43 16.41c3.11 3.11 3.13 4.06.11 7.08q-19.74 19.78-39.5 39.54c-3.37 3.36-4.1 3.35-7.46 0Q53.17 45.31 33.43 25.51c-3-3-3-4 .08-7.1.45-.45.9-.89 1.36-1.32 2.26-2.11 3.3-2.16 5.47 0q9.61 9.48 19.16 19c5 5 9.94 9.92 14.86 14.93 1.44 1.48 2.67 1.85 4.28.22q13.68-13.8 27.44-27.54a2.06 2.06 0 0 0 0-3.28c-.19-.2-.37-.39-.57-.58-6.39-6.28-4.8-6.22-11-.09-5 4.95-9.93 9.93-14.9 14.88-2.3 2.37-3.61 2.37-6.05 0Q61 22.14 48.6 9.57a14 14 0 0 1-1.81-2.79z" fill="#8ec640"></path></svg></svg> <!----></g></g> <g transform="translate(0,66.9406623840332)"><g data-gra="path-name" fill-rule="" class="tp-name iconsvg-namesvg" transform="translate(0,0)"><g transform="scale(1)"><g><path d="M14.01-5.8L12.84-5.8 12.84-7.23 2.16-7.23 2.16-5.8 0.99-5.8 0.99-8.4 7.05-8.4 6.67-9.18 7.74-9.69 8.36-8.4 12.84-8.4 12.84-8.73 14.01-8.73 14.01-5.8ZM2.44-1.95L3.39-3.88 0.85-3.88 0.85-5.07 3.97-5.07 4.8-6.76 5.87-6.24 5.29-5.07 14.16-5.07 14.16-3.88 12.4-3.88 12.4-2.98 12.22-2.8Q11.59-2.22 10.86-1.69 10.13-1.16 9.27-0.67L9.27-0.67 13.84 1.02 13.42 2.13 7.84 0.06Q7.21 0.34 6.55 0.61 5.88 0.87 5.16 1.11L5.16 1.11Q4.33 1.38 3.62 1.57 2.91 1.77 2.38 1.88 1.84 1.99 1.53 2.05 1.21 2.11 1.19 2.11L1.19 2.11 1.09 1.53 1 0.94Q1.02 0.94 1.45 0.87 1.89 0.79 2.6 0.61 3.31 0.43 4.25 0.15 5.19-0.14 6.22-0.54L6.22-0.54 2.44-1.95ZM11.23-3.88L4.71-3.88 4.08-2.59 7.77-1.23Q8.7-1.68 9.58-2.23 10.46-2.79 11.23-3.49L11.23-3.49 11.23-3.88ZM22.48-4.79L21.86-4.33 23.14-4.33 23.77-4.69 24.36-3.67 21.75-2.17 23.55-2.31 23.36-2.75 24.44-3.21 25.35-1.14 24.27-0.67 24.05-1.17 22.73-1.06 22.73 0.78Q22.73 1.35 22.34 1.74 21.95 2.13 21.38 2.13L21.38 2.13 20.84 2.13 20.84 0.94 21.38 0.94Q21.55 0.94 21.55 0.78L21.55 0.78 21.55-0.97 19.43-0.81 19.43-2.21 21.09-3.17 19.55-3.17 19.55-4.13 20.46-4.79 19.66-4.79 19.66-5.96 24.72-5.96 24.72-4.79 22.48-4.79ZM16.38-5.71L15.69-6.67Q16.3-7.13 16.81-7.61 17.31-8.1 17.67-8.52 18.03-8.94 18.23-9.21 18.43-9.48 18.43-9.49L18.43-9.49 19.43-8.83Q19.39-8.8 19.18-8.5 18.96-8.19 18.56-7.73 18.16-7.27 17.61-6.74 17.05-6.21 16.38-5.71L16.38-5.71ZM17.09 2.17L17.09-3.19Q16.92-3.04 16.74-2.9 16.56-2.76 16.36-2.63L16.36-2.63 15.68-3.58Q16.32-4.05 16.84-4.56 17.37-5.07 17.75-5.51 18.13-5.96 18.34-6.24 18.55-6.52 18.55-6.54L18.55-6.54 19.55-5.88Q19.52-5.85 19.18-5.39 18.86-4.93 18.27-4.32L18.27-4.32 18.27 2.17 17.09 2.17ZM24.96-8.87L24.96-7.63Q24.96-7.06 24.56-6.67 24.16-6.29 23.61-6.29L23.61-6.29 19.59-6.29 19.59-8.87 20.77-8.87 20.77-7.47 21.66-7.47 21.66-9.48 22.84-9.48 22.84-7.47 23.61-7.47Q23.77-7.47 23.77-7.63L23.77-7.63 23.77-8.87 24.96-8.87ZM19.92-0.54L21-0.04 20.01 2.08 18.95 1.59 19.92-0.54ZM28.68-7.14L28.68-6.03Q28.68-5.98 28.65-5.67 28.62-5.35 28.54-4.81 28.45-4.27 28.3-3.55 28.14-2.82 27.88-1.96L27.88-1.96 29.22 1.69 28.11 2.1 27.27-0.21Q27.05 0.36 26.77 0.94 26.49 1.53 26.14 2.13L26.14 2.13 25.13 1.56 24.11 2.02 23.13-0.09 24.2-0.58 25.16 1.5Q25.65 0.6 26.02-0.27 26.38-1.14 26.64-1.95L26.64-1.95 25.5-5.1 26.59-5.5 27.16-3.93Q27.38-4.84 27.43-5.42 27.49-5.98 27.49-6.08L27.49-6.08 27.49-7.14 26.5-7.14Q26.38-6.69 26.22-6.24 26.05-5.79 25.8-5.37L25.8-5.37 24.8-5.98Q25.09-6.48 25.27-7.06 25.44-7.65 25.52-8.16 25.61-8.67 25.63-9.01 25.65-9.36 25.65-9.36L25.65-9.36 26.84-9.33Q26.84-9.3 26.82-9.03 26.8-8.76 26.74-8.32L26.74-8.32 29.14-8.32 29.14-7.14 28.68-7.14ZM43.23-6.9L42.95-6.72Q42.91-6.69 42.56-6.5 42.21-6.31 41.55-6.01L41.55-6.01 44.35-5.17 44.01-4.04 42.77-4.41 42.77-3.3 36.59-3.3 36.59-4.38Q36.23-4.3 35.86-4.23 35.49-4.16 35.1-4.08L35.1-4.08 34.91-5.23Q35.72-5.38 36.44-5.56 37.16-5.73 37.8-5.91L37.8-5.91 36.99-6.15 37.34-7.29 39.75-6.55Q40.61-6.87 41.17-7.14 41.74-7.41 42.05-7.57L42.05-7.57 42.05-7.59 37.26-7.59Q37.02-7.21 36.7-6.79 36.39-6.36 36-5.92L36-5.92 35.13-6.72Q35.58-7.23 35.92-7.71 36.26-8.19 36.47-8.57 36.67-8.96 36.79-9.2 36.9-9.44 36.9-9.44L36.9-9.44 37.99-9Q37.98-8.98 37.96-8.92 37.94-8.87 37.89-8.78L37.89-8.78 42.05-8.78 42.05-9.01 43.23-9.01 43.23-6.9ZM42.55-4.48L39.8-5.31Q39.21-5.1 38.52-4.89 37.83-4.68 37.03-4.48L37.03-4.48 42.55-4.48ZM40.3 0.39L40.3 0.94 44.14 0.94 44.14 2.13 35.3 2.13 35.3 0.94 39.13 0.94 39.13 0.39 36.23 0.39 36.23-0.6 36-0.28 35.16-0.91Q35.2-0.43 35.2 0.07L35.2 0.07 35.2 0.66 32.53 0.66 32.53-0.53 34.01-0.53Q33.95-1.44 33.75-2.15 33.55-2.86 33.34-3.35 33.13-3.84 32.96-4.09 32.79-4.35 32.79-4.35L32.79-4.35 32.55-4.65 34.13-7.42 34.13-8.04 32.07-8.04 32.07 2.11 30.9 2.11 30.9-9.22 35.31-9.22 35.31-7.11 33.96-4.72Q34.09-4.51 34.26-4.18 34.42-3.84 34.6-3.38 34.77-2.92 34.91-2.35 35.05-1.78 35.13-1.09L35.13-1.09Q35.43-1.5 35.66-1.89 35.88-2.28 36.02-2.59 36.16-2.9 36.24-3.08 36.31-3.27 36.31-3.27L36.31-3.27 37.42-2.88Q37.42-2.83 37.29-2.52L37.29-2.52 39.13-2.52 39.13-3.15 40.3-3.15 40.3-2.52 43.59-2.52 43.59-1.35 40.3-1.35 40.3-0.79 43.17-0.79 43.17 0.39 40.3 0.39ZM36.36-0.79L39.13-0.79 39.13-1.35 36.7-1.35Q36.52-1.05 36.36-0.79L36.36-0.79ZM59.27-4.42L59.27-3.25 56.25-3.25 56.25 2.08 55.08 2.08 55.08-3.25 50.1-3.25Q49.88-2.16 49.45-1.2 49.02-0.24 48.6 0.47 48.18 1.19 47.85 1.61 47.52 2.04 47.49 2.08L47.49 2.08 46.58 1.33Q46.59 1.32 46.87 0.96 47.15 0.6 47.51-0.02 47.88-0.65 48.27-1.48 48.66-2.31 48.9-3.25L48.9-3.25 45.84-3.25 45.84-4.42 49.09-4.42Q49.11-4.59 49.12-4.74 49.13-4.89 49.13-5.05L49.13-5.05 49.13-7.92 46.74-7.92 46.74-9.09 58.38-9.09 58.38-7.92 56.25-7.92 56.25-4.42 59.27-4.42ZM50.28-4.42L55.08-4.42 55.08-7.92 50.31-7.92 50.31-5.05Q50.31-4.89 50.3-4.74 50.3-4.59 50.28-4.42L50.28-4.42ZM74.08-6.75L74.08-5.58 73.38-5.58 73.38-5.44Q73.38-5.13 73.26-4.85 73.14-4.58 72.94-4.37 72.73-4.17 72.46-4.05 72.18-3.93 71.86-3.93L71.86-3.93 69.89-3.93 69.89-3.13 73.25-3.13 73.25-1.96 69.89-1.96 69.89-1.21 73.86-1.21 73.86-0.04 69.89-0.04 69.89 0.65 68.72 0.65 68.72-0.04 64.95-0.04 64.95-1.21 68.72-1.21 68.72-1.96 65.52-1.96 65.52-3.13 68.72-3.13 68.72-3.93 65.72-3.93 65.72-5.12 68.72-5.12 68.72-5.58 65.33-5.58 65.33-6.75 68.72-6.75 68.72-7.47 65.76-7.47 65.76-8.65 68.72-8.65 68.72-9.3 69.89-9.3 69.89-8.65 72.19-8.65 72.19-8.87 73.38-8.87 73.38-6.75 74.08-6.75ZM69.89-7.47L69.89-6.75 72.19-6.75 72.19-7.47 69.89-7.47ZM72.19-5.44L72.19-5.58 69.89-5.58 69.89-5.12 71.86-5.12Q72-5.12 72.1-5.21 72.19-5.31 72.19-5.44L72.19-5.44ZM61.55 2.1L60.81 1.19Q61.48 0.65 61.99-0.03 62.51-0.7 62.87-1.33 63.23-1.95 63.43-2.44 63.63-2.94 63.7-3.12L63.7-3.12 63.7-3.15 61.29-3.15 61.29-4.17 63.7-7.02 63.7-7.81 61.2-7.81 61.2-8.98 64.88-8.98 64.88-6.58 62.97-4.32 64.88-4.32 64.88-2.92 64.84-2.83Q64.83-2.8 64.73-2.54 64.64-2.28 64.45-1.86 64.26-1.44 63.98-0.92 63.7-0.4 63.33 0.15L63.33 0.15Q63.47 0.24 63.67 0.37 63.88 0.49 64.16 0.61 64.44 0.72 64.77 0.8 65.1 0.89 65.47 0.89L65.47 0.89 74.01 0.89 74.01 2.07 65.47 2.07Q64.98 2.07 64.53 1.96 64.08 1.86 63.71 1.7 63.34 1.54 63.07 1.38 62.79 1.21 62.61 1.08L62.61 1.08Q62.13 1.62 61.55 2.1L61.55 2.1ZM76.28 0.93L78.15 0.4 78.15-4.32 76.39-4.32 76.39-5.5 81.09-5.5 81.09-4.32 79.33-4.32 79.33 0.07 80.89-0.36 81.22 0.77 76.59 2.07 76.28 0.93ZM88.11 0.77L88.11-0.03 89.3-0.03 89.3 0.77Q89.3 1.32 88.91 1.72 88.52 2.11 87.94 2.11L87.94 2.11 86.46 2.11 86.46-4.18 83.28-4.18 83.28-1.98Q83.28-1.3 83.05-0.57 82.81 0.16 82.54 0.78 82.26 1.4 82.01 1.81 81.77 2.22 81.75 2.25L81.75 2.25 81.25 1.93 80.76 1.62Q80.76 1.62 80.86 1.45 80.97 1.29 81.11 1.01 81.25 0.73 81.43 0.37 81.6 0 81.75-0.4 81.9-0.79 82-1.2 82.09-1.6 82.09-1.98L82.09-1.98 82.09-5.37 86.46-5.37 86.46-5.58 87.64-5.58 87.64 0.93 87.94 0.93Q88.11 0.93 88.11 0.77L88.11 0.77ZM86.13-0.07L85.05 0.38 83.58-3.18 84.66-3.63 86.13-0.07ZM79.11-7.25L77.75-7.25Q77.33-6.71 77-6.34 76.67-5.97 76.64-5.94L76.64-5.94 75.8-6.76Q75.8-6.76 76.03-7.02 76.26-7.27 76.58-7.67 76.89-8.05 77.22-8.54 77.55-9.01 77.78-9.48L77.78-9.48 78.84-8.98Q78.72-8.7 78.54-8.43L78.54-8.43 82.36-8.43 82.36-7.25 80.58-7.25 81.08-6.57 80.13-5.87 79.11-7.25ZM89.14-8.43L89.14-7.25 87.34-7.25 87.86-6.57 86.89-5.87 85.88-7.25 84.53-7.25Q84.11-6.71 83.78-6.34 83.44-5.97 83.41-5.94L83.41-5.94 82.56-6.76Q82.56-6.76 82.79-7.02 83.03-7.27 83.34-7.67 83.66-8.05 83.99-8.54 84.33-9.01 84.56-9.48L84.56-9.48 85.62-8.98Q85.47-8.7 85.32-8.43L85.32-8.43 89.14-8.43ZM102.84-7.65L102.84-7.65 98.06-7.65 98.06 0.39 103.94 0.39 103.94 1.56 90.99 1.56 90.99 0.39 96.87 0.39 96.87-7.65 92.08-7.65 92.08-8.83 102.84-8.83 102.84-7.65ZM118.56-9.31L118.56-5.97Q118.56-5.42 118.17-5.02 117.78-4.62 117.21-4.62L117.21-4.62 111.81-4.62 111.81-9.04 117.38-9.04 117.38-9.31 118.56-9.31ZM117.38-5.97L117.38-7.86 112.98-7.86 112.98-5.8 117.21-5.8Q117.38-5.8 117.38-5.97L117.38-5.97ZM119.13 0.94L119.13 2.13 111.24 2.13 111.24 0.94 114.58 0.94 114.58-0.33 111.75-0.33 111.75-1.51 114.58-1.51 114.58-2.75 111.51-2.75 111.51-3.93 118.84-3.93 118.84-2.75 115.77-2.75 115.77-1.51 118.61-1.51 118.61-0.33 115.77-0.33 115.77 0.94 119.13 0.94ZM107.92-5.23L107.82-5.23Q107.79-4.75 107.72-3.95 107.64-3.15 107.51-2.15 107.39-1.16 107.2-0.03 107.01 1.09 106.75 2.19L106.75 2.19 105.6 1.93Q105.84 0.9 106.02-0.17 106.2-1.24 106.32-2.21 106.44-3.17 106.52-3.96 106.59-4.75 106.64-5.23L106.64-5.23 105.8-5.23 105.8-6.42 107.92-6.42 107.92-7.8 106-7.8 106-8.97 108.69-8.97Q108.92-8.97 109.23-9.01 109.55-9.04 109.86-9.11 110.17-9.16 110.44-9.22 110.72-9.29 110.86-9.31L110.86-9.31 111.14-8.17Q111.12-8.17 110.92-8.12 110.73-8.07 110.44-8.02 110.14-7.96 109.79-7.9 109.44-7.84 109.11-7.81L109.11-7.81 109.11-6.42 111.24-6.42 111.24-5.23 109.11-5.23 109.11 2.22 107.92 2.22 107.92-5.23ZM109.26-4.47L110.43-4.62 111.22 1.99 110.06 2.13 109.26-4.47ZM121.41-2.52L120.64-3.42Q121.28-3.96 121.78-4.49 122.28-5.02 122.67-5.53 123.06-6.03 123.34-6.48 123.63-6.93 123.81-7.27L123.81-7.27 121.31-7.27 121.31-8.45 124.2-8.45 124.2-9.36 125.37-9.36 125.37-8.45 133.83-8.45 133.83-7.27 125.13-7.27Q125.01-7.04 124.84-6.71 124.68-6.38 124.42-5.97L124.42-5.97 131.26-5.97 131.26-6.29 132.45-6.29 132.45 0.82Q132.45 1.38 132.05 1.78 131.66 2.17 131.1 2.17L131.1 2.17 129.54 2.17 129.54 0.99 131.1 0.99Q131.26 0.99 131.26 0.82L131.26 0.82 131.26 0.03 124.67 0.03 124.67 2.19 123.5 2.19 123.5-4.67Q123.08-4.14 122.56-3.6 122.06-3.06 121.41-2.52L121.41-2.52ZM124.67-1.16L131.26-1.16 131.26-2.38 124.67-2.38 124.67-1.16ZM131.26-4.8L124.67-4.8 124.67-3.55 131.26-3.55 131.26-4.8ZM140.7-9.13L140.7-7.18 139.37-4.83Q139.54-4.58 139.77-4.17 140-3.76 140.21-3.2 140.41-2.64 140.56-1.93 140.7-1.23 140.7-0.38L140.7-0.38 140.7 0.21 137.55 0.21 137.55-0.96 139.5-0.96Q139.43-1.77 139.22-2.4 139.02-3.03 138.8-3.47 138.59-3.92 138.41-4.15 138.22-4.38 138.22-4.38L138.22-4.38 137.94-4.69 138.15-5.07 139.53-7.5 139.53-7.95 137.21-7.95 137.21 2.21 136.03 2.21 136.03-9.13 140.7-9.13ZM144.39-3.09L142.35-3.09 142.35 0.72 144.36 0.27 144.63 1.43 141.18 2.21 141.18-9.07 147.36-9.07 147.36-9.39 148.54-9.39 148.54-4.44Q148.54-3.87 148.16-3.48 147.76-3.09 147.19-3.09L147.19-3.09 145.65-3.09Q145.78-2.76 145.99-2.38 146.19-1.99 146.46-1.56L146.46-1.56 148.38-2.86 149.04-1.89 147.15-0.6Q147.54-0.12 148.03 0.34 148.51 0.79 149.13 1.23L149.13 1.23 148.46 2.19Q147.51 1.54 146.81 0.8 146.12 0.06 145.63-0.66 145.14-1.38 144.84-2.01 144.54-2.64 144.39-3.09L144.39-3.09ZM142.35-4.26L147.19-4.26Q147.36-4.26 147.36-4.44L147.36-4.44 147.36-5.55 142.35-5.55 142.35-4.26ZM147.36-7.9L142.35-7.9 142.35-6.72 147.36-6.72 147.36-7.9ZM155.12-9.22L161.5-9.22 164.25-4.92 163.26-4.29 160.86-8.04 155.12-8.04 155.12-9.22ZM153.59-9.38L154.71-9.01Q154.41-8.1 153.9-7.24 153.39-6.38 152.89-5.7 152.38-5.02 152-4.6 151.62-4.17 151.59-4.14L151.59-4.14 151.17-4.54 150.75-4.96Q150.75-4.96 150.91-5.14 151.08-5.33 151.34-5.63 151.59-5.94 151.91-6.36 152.22-6.78 152.53-7.27 152.85-7.75 153.13-8.29 153.41-8.82 153.59-9.38L153.59-9.38ZM159.85-1.67L160.86-2.27 163.13 1.54 162.1 2.15 161.4 0.96 151.95 2.05 151.95 0.66 156.41-5.64 157.38-4.96 153.36 0.7 160.75-0.15 159.85-1.67ZM175.95-4.6L175.95-1.32Q175.95-0.75 175.55-0.36 175.16 0.03 174.6 0.03L174.6 0.03 167.19 0.03 167.19-4.33 174.76-4.33 174.76-4.6 175.95-4.6ZM168.38-3.17L168.38-1.16 174.6-1.16Q174.76-1.16 174.76-1.32L174.76-1.32 174.76-3.17 168.38-3.17ZM176.38-6.69L176.38-5.5 166.25-5.5 166.25-6.69 176.38-6.69ZM178.49-9.31L178.49 0.73Q178.49 1.3 178.09 1.69 177.71 2.08 177.13 2.08L177.13 2.08 174.28 2.08 174.28 0.9 177.13 0.9Q177.31 0.9 177.31 0.73L177.31 0.73 177.31-7.9 166.57-7.9 166.57-9.09 177.31-9.09 177.31-9.31 178.49-9.31Z" transform="translate(-0.8500000238418579, 9.690000534057617)"></path></g> <!----> <!----> <!----> <!----> <!----> <!----> <!----></g></g> <g data-gra="path-slogan" fill-rule="" class="tp-slogan iconsvg-slogansvg" fill="#333" transform="translate(-0.9799957275390625,17.940000534057617)"><rect width="0"></rect> <rect x="182.59999084472656" width="0"></rect> <g transform="translate(0,0)"><g transform="scale(1)"><path d="M3.54 0L3.08-1.34L1.21-1.34L0.73 0L0.10 0L1.84-4.62L2.55-4.62L4.22 0L3.54 0ZM2.15-3.94L1.41-1.89L2.85-1.89L2.17-3.94L2.15-3.94ZM5.53-4.62L7.85-0.88L7.85-4.62L8.46-4.62L8.46 0L7.75 0L5.40-3.74L5.38-3.74L5.38 0L4.77 0L4.77-4.62L5.53-4.62ZM10.05-2.73L12.47-2.73L12.47-4.62L13.11-4.62L13.11 0L12.47 0L12.47-2.15L10.05-2.15L10.05 0L9.42 0L9.42-4.62L10.05-4.62L10.05-2.73ZM17.12-1.72L17.12-4.62L17.75-4.62L17.75-1.64Q17.68 0.03 15.86 0.08L15.86 0.08Q14.17 0.03 14.09-1.54L14.09-1.54L14.09-4.62L14.72-4.62L14.72-1.72Q14.75-0.45 15.88-0.43L15.88-0.43Q17.12-0.45 17.12-1.72L17.12-1.72ZM18.81-4.62L19.44-4.62L19.44 0L18.81 0L18.81-4.62ZM22.30-4.62L22.93-4.62L22.93-0.56L25.28-0.56L25.28 0L22.30 0L22.30-4.62ZM29.55-2.30L29.55-2.30Q29.44-4.12 27.93-4.22L27.93-4.22Q26.39-4.14 26.31-2.30L26.31-2.30Q26.39-0.51 27.93-0.43L27.93-0.43Q29.44-0.53 29.55-2.30ZM30.18-2.30L30.18-2.30Q30.03 0 27.93 0.08L27.93 0.08Q25.81 0 25.66-2.30L25.66-2.30Q25.78-4.70 27.93-4.75L27.93-4.75Q30.03-4.67 30.18-2.30ZM31.67-4.62L33.99-0.88L33.99-4.62L34.60-4.62L34.60 0L33.89 0L31.54-3.74L31.52-3.74L31.52 0L30.91 0L30.91-4.62L31.67-4.62ZM39.02-1.94L37.60-1.94L37.60-2.47L39.62-2.47L39.62 0L39.22 0L39.07-0.58Q38.54 0.05 37.55 0.08L37.55 0.08Q36.62 0.08 36.11-0.40L36.11-0.40Q35.35-1.11 35.38-2.35L35.38-2.35Q35.56-4.65 37.58-4.75L37.58-4.75Q39.29-4.65 39.55-3.23L39.55-3.23L38.94-3.23Q38.69-4.19 37.55-4.22L37.55-4.22Q36.11-4.12 36.04-2.32L36.04-2.32Q36.04-0.40 37.58-0.40L37.58-0.40Q38.13-0.40 38.54-0.71L38.54-0.71Q39.04-1.11 39.02-1.94L39.02-1.94ZM41.94-2.32L41.21-1.64L41.21 0L40.58 0L40.58-4.62L41.21-4.62L41.21-2.37L43.46-4.62L44.34-4.62L42.40-2.75L44.39 0L43.56 0L41.94-2.32ZM47.93 0L47.47-1.34L45.61-1.34L45.13 0L44.49 0L46.24-4.62L46.94-4.62L48.61 0L47.93 0ZM46.54-3.94L45.81-1.89L47.25-1.89L46.57-3.94L46.54-3.94ZM49.27-4.62L49.90-4.62L49.90 0L49.27 0L49.27-4.62ZM56.62-3.26L56.62-3.26L56.01-3.26Q55.78-4.19 54.72-4.22L54.72-4.22Q53.26-4.14 53.21-2.35L53.21-2.35Q53.21-0.43 54.75-0.43L54.75-0.43Q55.81-0.45 56.06-1.72L56.06-1.72L56.67-1.72Q56.39 0.03 54.62 0.08L54.62 0.08Q52.60 0 52.55-2.32L52.55-2.32Q52.65-4.65 54.72-4.75L54.72-4.75Q56.36-4.70 56.62-3.26ZM61.06-2.30L61.06-2.30Q60.96-4.12 59.44-4.22L59.44-4.22Q57.90-4.14 57.83-2.30L57.83-2.30Q57.90-0.51 59.44-0.43L59.44-0.43Q60.96-0.53 61.06-2.30ZM61.69-2.30L61.69-2.30Q61.54 0 59.44 0.08L59.44 0.08Q57.32 0 57.17-2.30L57.17-2.30Q57.30-4.70 59.44-4.75L59.44-4.75Q61.54-4.67 61.69-2.30ZM63.18-4.62L65.51-0.88L65.51-4.62L66.11-4.62L66.11 0L65.40 0L63.06-3.74L63.03-3.74L63.03 0L62.42 0L62.42-4.62L63.18-4.62ZM70.45-3.28L70.45-3.28L69.87-3.28Q69.82-4.17 68.71-4.22L68.71-4.22Q67.68-4.19 67.68-3.41L67.68-3.41Q67.68-2.90 68.23-2.83L68.23-2.83L69.55-2.53Q70.58-2.27 70.58-1.26L70.58-1.26Q70.56 0.03 68.76 0.08L68.76 0.08Q67.78 0.08 67.37-0.33L67.37-0.33Q66.87-0.71 66.89-1.49L66.89-1.49L67.50-1.49Q67.53-0.43 68.76-0.40L68.76-0.40Q69.97-0.43 70-1.19L70-1.19Q70.10-1.82 68.99-2.02L68.99-2.02L68.03-2.22Q67.05-2.50 67.05-3.33L67.05-3.33Q67.12-4.70 68.66-4.75L68.66-4.75Q70.40-4.75 70.45-3.28ZM72.55-4.09L70.98-4.09L70.98-4.62L74.72-4.62L74.72-4.09L73.16-4.09L73.16 0L72.55 0L72.55-4.09ZM77.50-1.99L75.98-1.99L75.98 0L75.35 0L75.35-4.62L77.50-4.62Q79.04-4.62 79.04-3.38L79.04-3.38Q79.04-2.63 78.38-2.27L78.38-2.27Q78.94-2.12 78.94-1.39L78.94-1.39L78.99-0.56Q78.96-0.20 79.22-0.10L79.22-0.10L79.22 0L78.43 0Q78.36-0.33 78.33-1.16L78.33-1.16Q78.36-1.99 77.50-1.99L77.50-1.99ZM77.55-4.12L75.98-4.12L75.98-2.53L77.45-2.53Q78.38-2.53 78.38-3.33L78.38-3.33Q78.38-4.12 77.55-4.12L77.55-4.12ZM82.98-1.72L82.98-4.62L83.61-4.62L83.61-1.64Q83.54 0.03 81.72 0.08L81.72 0.08Q80.03 0.03 79.95-1.54L79.95-1.54L79.95-4.62L80.58-4.62L80.58-1.72Q80.61-0.45 81.74-0.43L81.74-0.43Q82.98-0.45 82.98-1.72L82.98-1.72ZM88.43-3.26L88.43-3.26L87.83-3.26Q87.60-4.19 86.54-4.22L86.54-4.22Q85.08-4.14 85.03-2.35L85.03-2.35Q85.03-0.43 86.57-0.43L86.57-0.43Q87.63-0.45 87.88-1.72L87.88-1.72L88.48-1.72Q88.21 0.03 86.44 0.08L86.44 0.08Q84.42 0 84.37-2.32L84.37-2.32Q84.47-4.65 86.54-4.75L86.54-4.75Q88.18-4.70 88.43-3.26ZM90.40-4.09L88.84-4.09L88.84-4.62L92.58-4.62L92.58-4.09L91.01-4.09L91.01 0L90.40 0L90.40-4.09ZM93.23-4.62L93.86-4.62L93.86 0L93.23 0L93.23-4.62ZM98.59-2.30L98.59-2.30Q98.48-4.12 96.97-4.22L96.97-4.22Q95.43-4.14 95.35-2.30L95.35-2.30Q95.43-0.51 96.97-0.43L96.97-0.43Q98.48-0.53 98.59-2.30ZM99.22-2.30L99.22-2.30Q99.07 0 96.97 0.08L96.97 0.08Q94.85 0 94.70-2.30L94.70-2.30Q94.82-4.70 96.97-4.75L96.97-4.75Q99.07-4.67 99.22-2.30ZM100.71-4.62L103.03-0.88L103.03-4.62L103.64-4.62L103.64 0L102.93 0L100.58-3.74L100.56-3.74L100.56 0L99.95 0L99.95-4.62L100.71-4.62ZM107.10-0.56L109.87-0.56L109.87 0L106.46 0L106.46-4.62L109.82-4.62L109.82-4.09L107.10-4.09L107.10-2.65L109.62-2.65L109.62-2.10L107.10-2.10L107.10-0.56ZM111.44-4.62L113.76-0.88L113.76-4.62L114.37-4.62L114.37 0L113.66 0L111.31-3.74L111.29-3.74L111.29 0L110.68 0L110.68-4.62L111.44-4.62ZM118.79-1.94L117.37-1.94L117.37-2.47L119.39-2.47L119.39 0L118.99 0L118.84-0.58Q118.31 0.05 117.32 0.08L117.32 0.08Q116.39 0.08 115.88-0.40L115.88-0.40Q115.13-1.11 115.15-2.35L115.15-2.35Q115.33-4.65 117.35-4.75L117.35-4.75Q119.07-4.65 119.32-3.23L119.32-3.23L118.71-3.23Q118.46-4.19 117.32-4.22L117.32-4.22Q115.88-4.12 115.81-2.32L115.81-2.32Q115.81-0.40 117.35-0.40L117.35-0.40Q117.90-0.40 118.31-0.71L118.31-0.71Q118.81-1.11 118.79-1.94L118.79-1.94ZM120.45-4.62L121.09-4.62L121.09 0L120.45 0L120.45-4.62ZM122.90-4.62L125.23-0.88L125.23-4.62L125.83-4.62L125.83 0L125.13 0L122.78-3.74L122.75-3.74L122.75 0L122.15 0L122.15-4.62L122.90-4.62ZM127.50-0.56L130.28-0.56L130.28 0L126.87 0L126.87-4.62L130.23-4.62L130.23-4.09L127.50-4.09L127.50-2.65L130.03-2.65L130.03-2.10L127.50-2.10L127.50-0.56ZM131.79-0.56L134.57-0.56L134.57 0L131.16 0L131.16-4.62L134.52-4.62L134.52-4.09L131.79-4.09L131.79-2.65L134.32-2.65L134.32-2.10L131.79-2.10L131.79-0.56ZM137.60-1.99L136.09-1.99L136.09 0L135.45 0L135.45-4.62L137.60-4.62Q139.14-4.62 139.14-3.38L139.14-3.38Q139.14-2.63 138.48-2.27L138.48-2.27Q139.04-2.12 139.04-1.39L139.04-1.39L139.09-0.56Q139.07-0.20 139.32-0.10L139.32-0.10L139.32 0L138.54 0Q138.46-0.33 138.43-1.16L138.43-1.16Q138.46-1.99 137.60-1.99L137.60-1.99ZM137.65-4.12L136.09-4.12L136.09-2.53L137.55-2.53Q138.48-2.53 138.48-3.33L138.48-3.33Q138.48-4.12 137.65-4.12L137.65-4.12ZM140.13-4.62L140.76-4.62L140.76 0L140.13 0L140.13-4.62ZM142.58-4.62L144.90-0.88L144.90-4.62L145.51-4.62L145.51 0L144.80 0L142.45-3.74L142.42-3.74L142.42 0L141.82 0L141.82-4.62L142.58-4.62ZM149.92-1.94L148.51-1.94L148.51-2.47L150.53-2.47L150.53 0L150.13 0L149.97-0.58Q149.44 0.05 148.46 0.08L148.46 0.08Q147.53 0.08 147.02-0.40L147.02-0.40Q146.26-1.11 146.29-2.35L146.29-2.35Q146.46-4.65 148.48-4.75L148.48-4.75Q150.20-4.65 150.45-3.23L150.45-3.23L149.85-3.23Q149.60-4.19 148.46-4.22L148.46-4.22Q147.02-4.12 146.94-2.32L146.94-2.32Q146.94-0.40 148.48-0.40L148.48-0.40Q149.04-0.40 149.44-0.71L149.44-0.71Q149.95-1.11 149.92-1.94L149.92-1.94ZM157.15-3.26L157.15-3.26L156.54-3.26Q156.31-4.19 155.25-4.22L155.25-4.22Q153.79-4.14 153.74-2.35L153.74-2.35Q153.74-0.43 155.28-0.43L155.28-0.43Q156.34-0.45 156.59-1.72L156.59-1.72L157.20-1.72Q156.92 0.03 155.15 0.08L155.15 0.08Q153.13 0 153.08-2.32L153.08-2.32Q153.18-4.65 155.25-4.75L155.25-4.75Q156.89-4.70 157.15-3.26ZM161.59-2.30L161.59-2.30Q161.49-4.12 159.97-4.22L159.97-4.22Q158.43-4.14 158.36-2.30L158.36-2.30Q158.43-0.51 159.97-0.43L159.97-0.43Q161.49-0.53 161.59-2.30ZM162.22-2.30L162.22-2.30Q162.07 0 159.97 0.08L159.97 0.08Q157.85 0 157.70-2.30L157.70-2.30Q157.83-4.70 159.97-4.75L159.97-4.75Q162.07-4.67 162.22-2.30ZM163.03-0.68L163.71-0.68L163.71 0L163.03 0L163.03-0.68ZM165.18 0L164.82 0L164.82-0.68L165.51-0.68L165.51-0.05Q165.51 0.78 164.82 0.91L164.82 0.91L164.82 0.58Q165.18 0.53 165.18 0L165.18 0ZM168.33-4.62L168.96-4.62L168.96-0.56L171.31-0.56L171.31 0L168.33 0L168.33-4.62ZM173.11-4.09L171.54-4.09L171.54-4.62L175.28-4.62L175.28-4.09L173.71-4.09L173.71 0L173.11 0L173.11-4.09ZM177.73 0L175.86 0L175.86-4.62L177.75-4.62Q179.62-4.52 179.70-2.37L179.70-2.37Q179.60-0.05 177.73 0L177.73 0ZM177.65-4.12L176.49-4.12L176.49-0.53L177.70-0.53Q179.02-0.61 179.07-2.32L179.07-2.32Q179.04-4.07 177.65-4.12L177.65-4.12Z" transform="translate(-0.10101010101010101, 4.747474747474747)"></path></g></g></g></g></g><defs v-gra="od"></defs></svg>