<svg data-v-0dd9719b="" version="1.0" xmlns="http://www.w3.org/2000/svg" xmlns:xlink="http://www.w3.org/1999/xlink" width="100%" height="100%" viewBox="0 0 340.000000 250.000000" preserveAspectRatio="xMidYMid meet" color-interpolation-filters="sRGB" style="margin: auto;"> <rect data-v-0dd9719b="" x="0" y="0" width="100%" height="100%" fill="#ffffff" fill-opacity="1" class="background"></rect> <rect data-v-0dd9719b="" x="0" y="0" width="100%" height="100%" fill="url(#watermark)" fill-opacity="1" class="watermarklayer"></rect> <g data-v-0dd9719b="" fill="#171e60" class="icon-text-wrapper icon-svg-group iconsvg" transform="translate(81.01000213623047,71.57585144042969)"><g class="iconsvg-imagesvg" transform="translate(58.98999786376953,0)"><g><rect fill="#171e60" fill-opacity="0" stroke-width="2" x="0" y="0" width="60" height="42.51580170630084" class="image-rect"></rect> <svg filter="url(#colors3770599004)" x="0" y="0" width="60" height="42.51580170630084" filtersec="colorsf2932964566" class="image-svg-svg primary" style="overflow: visible;"><svg xmlns="http://www.w3.org/2000/svg" xmlns:xlink="http://www.w3.org/1999/xlink" version="1.1" x="0px" y="0px" viewBox="4.717424392700195 5.204408645629883 40.28987121582031 28.549226760864258" xml:space="preserve"><title>alters</title><path d="M42.6,25.8c0,0-3.3-17.3-15.8-19.7c-4.9-1.3-10.1-1.2-15,0.4c-1.5,0.6-0.8,1.2-0.1,1.6s8.7,7.2,11.6,10.8s10.5,12.4,18,9.1  S42.6,25.8,42.6,25.8z M20,8.1c0,0,12.1-0.9,17,14.2C37,22.3,30.4,9.5,20,8.1z"></path><path d="M36.1,23.2l-0.2-0.6l-0.2-0.2C36,22.9,36.1,23.2,36.1,23.2z"></path><path d="M43.3,27.5c-1,0.5-2,1-3,1.4c-6.1,2.5-12.2-2.9-15.7-7c-3.6-1.4-7.5-1.7-11.2-0.8c3.1-1.4,6.5-1.7,9.8-0.9l-0.6-0.7  c-0.9-1-1.8-2-2.8-3c-0.3,0-0.6,0.1-0.9,0.2c-5,0.7-9.8,2.9-13.6,6.2C4.1,24,5,24.2,5.8,24.4s10.9,3.2,14.9,5.3s14.5,7.2,20.1,1.3  C43.2,28.5,43.6,27.7,43.3,27.5z"></path></svg></svg> <defs><filter id="colors3770599004"><feColorMatrix type="matrix" values="0 0 0 0 0.08984375  0 0 0 0 0.1171875  0 0 0 0 0.375  0 0 0 1 0" class="icon-fecolormatrix"></feColorMatrix></filter> <filter id="colorsf2932964566"><feColorMatrix type="matrix" values="0 0 0 0 0.99609375  0 0 0 0 0.99609375  0 0 0 0 0.99609375  0 0 0 1 0" class="icon-fecolormatrix"></feColorMatrix></filter> <filter id="colorsb2529255650"><feColorMatrix type="matrix" values="0 0 0 0 0  0 0 0 0 0  0 0 0 0 0  0 0 0 1 0" class="icon-fecolormatrix"></feColorMatrix></filter></defs></g></g> <g transform="translate(0,49.51580047607422)"><g data-gra="path-name" fill-rule="" class="tp-name iconsvg-namesvg" transform="translate(0,0)"><g transform="scale(1)"><g><path d="M1.84-24.25L15.34-24.25 15.34-21.78Q12.46-6.34 1.3 0.58L1.3 0.58 0.85 0.18Q9-9.81 10.04-22.99L10.04-22.99 2.25-22.99 1.84-24.25ZM25.11-8.73L27.36-8.73 29.74-12.01Q32.31-9.95 34.02-8.37L34.02-8.37Q32.8-11.07 31.81-14.45L31.81-14.45Q31.54-14.04 30.78-14.04L30.78-14.04 25.11-14.04 25.11-8.73ZM29.92-20.16L25.11-20.16 25.11-15.3 25.92-15.3 28.08-18.18Q30.24-16.38 31.68-15.03L31.68-15.03Q31.18-16.88 30.51-20.25L30.51-20.25Q30.15-20.16 29.92-20.16L29.92-20.16ZM37.93-27.72L37.93-27.72 41.85-23.45Q36.77-20.29 33.03-18.9L33.03-18.9Q37.26-9.09 44.19-4.95L44.19-4.95 44.05-4.5Q42.61-4.14 41.45-2.97L41.45-2.97Q40.32-1.84 39.78 0L39.78 0Q36.45-3.15 34.16-8.05L34.16-8.05Q33.88-7.47 32.94-7.47L32.94-7.47 25.11-7.47 25.11-2.11Q25.11 0.85 23.71 2.25L23.71 2.25Q22.36 3.65 17.86 4.05L17.86 4.05Q17.55 1.35 16.7 0.54L16.7 0.54Q15.3-0.72 12.06-1.21L12.06-1.21 12.06-1.8Q17.64-1.48 18.77-1.48L18.77-1.48Q19.8-1.48 19.8-2.29L19.8-2.29 19.8-7.47 11.38-7.47 11.03-8.73 19.8-8.73 19.8-14.04 14.49-14.04 14.13-15.3 19.8-15.3 19.8-20.16 15.71-20.16 15.34-21.42 19.8-21.42 19.8-29.25 24.07-28.84Q27.18-31.23 29.56-33.93L29.56-33.93 8.41-33.93 8.01-35.23 36.13-35.23 36.13-33.21Q31.14-30.42 26.14-28.66L26.14-28.66 26.73-28.62Q26.5-27.63 25.11-27.45L25.11-27.45 25.11-21.42 27.4-24.21Q28.93-22.86 30.29-21.64L30.29-21.64Q29.74-24.88 29.34-28.62L29.34-28.62 29.97-28.8Q30.91-24.07 32.63-19.93L32.63-19.93Q35.95-24.03 37.93-27.72ZM80.1-14.35L69.21-14.35 69.21-9.72 80.1-9.72 80.1-14.35ZM80.1-6.97L80.1-8.46 77.17-8.46 77.17-0.81Q77.17 1.67 76.09 2.75L76.09 2.75Q75.06 3.82 71.55 4.09L71.55 4.09Q71.41 2.07 70.92 1.44L70.92 1.44Q70.29 0.54 68.4 0.22L68.4 0.22 68.4-0.36Q70.88-0.18 71.59-0.18 72.31-0.18 72.31-0.9L72.31-0.9 72.31-8.46 69.21-8.46 69.21-7.74Q69.21-7.33 67.28-6.71L67.28-6.71 71.95-4.5Q71.59-3.73 70.38-3.92L70.38-3.92Q68.63-1.75 65.84 0.18 63.05 2.11 59.89 3.24L59.89 3.24 59.49 2.7Q63.59-0.77 66.06-6.43L66.06-6.43Q65.88-6.43 65.61-6.39L65.61-6.39Q65.34-6.39 65.2-6.39L65.2-6.39 64.53-6.39 64.53-17.59 69.48-15.66 84.78-15.66 84.78-8.05Q84.78-7.79 83.38-7.38 81.99-6.97 80.91-6.97L80.91-6.97 80.1-6.97ZM77.98-5.8L77.98-5.8 78.34-6.17Q85.14-5.71 87.3-2.52L87.3-2.52Q88.56-0.63 87.57 0.94L87.57 0.94Q86.58 2.48 84.64 1.89L84.64 1.89Q84.24 1.8 83.84 1.57L83.84 1.57Q83.16-0.27 81.45-2.29L81.45-2.29Q79.78-4.37 77.98-5.8ZM79.88-29.38L69.3-29.38 69.3-25.88 79.88-25.88 79.88-29.38ZM79.88-30.64L79.88-34.06 69.3-34.06 69.3-30.64 79.88-30.64ZM76.55-19.66L89.1-19.66 89.1-18.36 61.83-18.36 61.56-19.35 57.2-19.35 57.2-7.92Q58.19-8.19 60.16-8.73 62.14-9.27 63.09-9.54L63.09-9.54 63.22-9.04Q57.69-4.95 49.81-0.49L49.81-0.49Q49.55 0.45 48.69 0.77L48.69 0.77 45.99-5.17Q48.6-5.71 52.06-6.61L52.06-6.61 52.06-19.35 47.02-19.35 46.66-20.65 52.06-20.65 52.06-32.27 46.62-32.27 46.3-33.57 63.22-33.57 63.22-32.27 57.2-32.27 57.2-20.65 57.51-20.65 59.53-23.89Q61.83-21.6 63.05-20.02L63.05-20.02Q62.95-19.75 62.86-19.66L62.86-19.66 73.71-19.66Q73.17-19.93 72.63-20.47L72.63-20.47Q73.08-22.77 71.91-24.43L71.91-24.43 72.18-24.61Q77.31-23.85 77.76-21.78L77.76-21.78Q77.98-20.47 76.55-19.66L76.55-19.66ZM79.88-22.77L79.88-24.61 69.3-24.61 69.3-23.4Q69.3-23.18 68.72-22.81L68.72-22.81Q68.13-22.5 67.09-22.23L67.09-22.23Q66.11-21.96 65.2-21.96L65.2-21.96 64.53-21.96 64.53-37.35 69.53-35.32 84.64-35.32 84.64-23.89Q84.6-23.67 83.16-23.22L83.16-23.22Q81.77-22.77 80.69-22.77L80.69-22.77 79.88-22.77ZM118.89-31.27L114.08-31.27 113.72-32.53 119.07-32.53 119.92-38.2 124.69-37.03Q124.69-37.03 124.16-32.53L124.16-32.53 133.11-32.53 133.11-31.27 123.93-31.27 123.25-26.86Q121.55-25.56 118.13-26.28L118.13-26.28 118.89-31.27ZM99.81-31.27L92.3-31.27 91.94-32.53 99.67-32.53 99-38.16 104.27-37.75 104.76-32.53 113.13-32.53 113.13-31.27 104.89-31.27 105.48-26.86Q104.44-25.43 100.48-25.52L100.48-25.52 99.81-31.27ZM93.33 2.65L93.33 2.65 92.97 2.16Q95.89-0.18 98.37-3.73 100.84-7.29 102.02-10.48L102.02-10.48 106.38-7.42Q104.22-4.05 100.75-1.44L100.75-1.44Q97.33 1.13 93.33 2.65ZM126.13-13.14L126.13-11.83 115.33-11.83 115.33 2.75Q115.33 2.97 114.66 3.28L114.66 3.28Q113.98 3.65 112.86 3.92L112.86 3.92Q111.78 4.18 110.84 4.18L110.84 4.18 109.8 4.18 109.8-11.83 99.18-11.83 98.82-13.14 109.8-13.14 109.8-20.07 115.33-19.44 115.33-13.14 126.13-13.14ZM117.67-8.87L117.67-8.87 118.03-9.22Q126.27-7.74 129.01-3.6L129.01-3.6Q130.63-1.17 129.6 0.77L129.6 0.77Q128.75 2.38 126.77 1.98L126.77 1.98Q126.18 1.84 125.55 1.48L125.55 1.48Q123.57-3.51 117.67-8.87ZM109.08-29.38L109.08-29.38 116.95-27.54Q116.73-26.68 114.8-26.5L114.8-26.5Q117.63-23.63 122.85-21.87 128.07-20.11 133.78-19.44L133.78-19.44 133.74-18.72Q132.21-18.22 131.18-16.74L131.18-16.74Q130.19-15.3 129.96-13.68L129.96-13.68Q118.22-17.5 114.08-26.01L114.08-26.01Q111.02-21.73 104.81-17.91L104.81-17.91Q98.64-14.13 91.67-12.33L91.67-12.33 91.39-12.87Q97.38-15.57 102.56-20.43L102.56-20.43Q107.78-25.29 109.08-29.38ZM138.87-28.53L138.87-28.53 139.5-28.75Q146.79-22.32 148.54-15.3L148.54-15.3Q149.63-10.98 148.14-8.87L148.14-8.87Q146.93-7.11 144.94-8.5L144.94-8.5Q144.68-8.73 144.36-9L144.36-9Q144.04-16.61 138.87-28.53ZM165.33-0.27L178.83-0.27 178.83 1.03Q178.83 1.03 137.16 1.03L137.16 1.03 136.8-0.27 150.03-0.27 150.03-37.48 155.25-36.85 155.25-0.27 160.16-0.27 160.16-37.44 165.33-36.81 165.33-10.17Q168.93-20.2 171-28.93L171-28.93 176.26-26.55Q171.68-16.11 165.33-7.29L165.33-7.29 165.33-0.27Z" transform="translate(-0.8500000238418579, 38.20000076293945)"></path></g> <!----> <!----> <!----> <!----> <!----> <!----> <!----></g></g> <g data-gra="path-slogan" fill-rule="" class="tp-slogan iconsvg-slogansvg" fill="#171e60" transform="translate(8.650001525878906,48.380001068115234)"><!----> <!----> <g transform="scale(1, 1)"><g transform="scale(1)"><path d="M8.06-6.05L8.06-6.05L6.94-6.05Q6.52-7.78 4.55-7.83L4.55-7.83Q1.83-7.69 1.73-4.36L1.73-4.36Q1.73-0.80 4.59-0.80L4.59-0.80Q6.56-0.84 7.03-3.19L7.03-3.19L8.16-3.19Q7.64 0.05 4.36 0.14L4.36 0.14Q0.61 0 0.52-4.31L0.52-4.31Q0.70-8.63 4.55-8.81L4.55-8.81Q7.59-8.72 8.06-6.05ZM10.69-5.06L15.19-5.06L15.19-8.58L16.36-8.58L16.36 0L15.19 0L15.19-3.98L10.69-3.98L10.69 0L9.52 0L9.52-8.58L10.69-8.58L10.69-5.06ZM19.45-1.03L24.61-1.03L24.61 0L18.28 0L18.28-8.58L24.52-8.58L24.52-7.59L19.45-7.59L19.45-4.92L24.14-4.92L24.14-3.89L19.45-3.89L19.45-1.03ZM27.52-8.58L31.83-1.64L31.83-8.58L32.95-8.58L32.95 0L31.64 0L27.28-6.94L27.23-6.94L27.23 0L26.11 0L26.11-8.58L27.52-8.58ZM41.16-3.61L38.53-3.61L38.53-4.59L42.28-4.59L42.28 0L41.53 0L41.25-1.08Q40.27 0.09 38.44 0.14L38.44 0.14Q36.70 0.14 35.77-0.75L35.77-0.75Q34.36-2.06 34.41-4.36L34.41-4.36Q34.73-8.63 38.48-8.81L38.48-8.81Q41.67-8.63 42.14-6L42.14-6L41.02-6Q40.55-7.78 38.44-7.83L38.44-7.83Q35.77-7.64 35.63-4.31L35.63-4.31Q35.63-0.75 38.48-0.75L38.48-0.75Q39.52-0.75 40.27-1.31L40.27-1.31Q41.20-2.06 41.16-3.61L41.16-3.61ZM43.36-1.92L43.36-2.77L44.44-2.77L44.44-2.16Q44.44-0.75 45.75-0.75L45.75-0.75Q47.11-0.75 47.11-2.25L47.11-2.25L47.11-8.58L48.28-8.58L48.28-2.30Q48.23 0.09 45.80 0.14L45.80 0.14Q43.50 0.09 43.36-1.92L43.36-1.92ZM50.25-8.58L51.42-8.58L51.42 0L50.25 0L50.25-8.58ZM54.80-8.58L59.11-1.64L59.11-8.58L60.23-8.58L60.23 0L58.92 0L54.56-6.94L54.52-6.94L54.52 0L53.39 0L53.39-8.58L54.80-8.58ZM68.44-3.61L65.81-3.61L65.81-4.59L69.56-4.59L69.56 0L68.81 0L68.53-1.08Q67.55 0.09 65.72 0.14L65.72 0.14Q63.98 0.14 63.05-0.75L63.05-0.75Q61.64-2.06 61.69-4.36L61.69-4.36Q62.02-8.63 65.77-8.81L65.77-8.81Q68.95-8.63 69.42-6L69.42-6L68.30-6Q67.83-7.78 65.72-7.83L65.72-7.83Q63.05-7.64 62.91-4.31L62.91-4.31Q62.91-0.75 65.77-0.75L65.77-0.75Q66.80-0.75 67.55-1.31L67.55-1.31Q68.48-2.06 68.44-3.61L68.44-3.61ZM76.88-7.59L73.97-7.59L73.97-8.58L80.91-8.58L80.91-7.59L78-7.59L78 0L76.88 0L76.88-7.59ZM83.25-1.03L88.41-1.03L88.41 0L82.08 0L82.08-8.58L88.31-8.58L88.31-7.59L83.25-7.59L83.25-4.92L87.94-4.92L87.94-3.89L83.25-3.89L83.25-1.03ZM95.58 0L94.73-2.48L91.27-2.48L90.38 0L89.20 0L92.44-8.58L93.75-8.58L96.84 0L95.58 0ZM93-7.31L91.64-3.52L94.31-3.52L93.05-7.31L93-7.31ZM101.39-8.58L102.56-8.58L102.56 0L101.39 0L101.39-8.58ZM105.94-8.58L110.25-1.64L110.25-8.58L111.38-8.58L111.38 0L110.06 0L105.70-6.94L105.66-6.94L105.66 0L104.53 0L104.53-8.58L105.94-8.58ZM116.67 0L113.20 0L113.20-8.58L116.72-8.58Q120.19-8.39 120.33-4.41L120.33-4.41Q120.14-0.09 116.67 0L116.67 0ZM116.53-7.64L114.38-7.64L114.38-0.98L116.63-0.98Q119.06-1.13 119.16-4.31L119.16-4.31Q119.11-7.55 116.53-7.64L116.53-7.64ZM127.45-3.19L127.45-8.58L128.63-8.58L128.63-3.05Q128.48 0.05 125.11 0.14L125.11 0.14Q121.97 0.05 121.83-2.86L121.83-2.86L121.83-8.58L123-8.58L123-3.19Q123.05-0.84 125.16-0.80L125.16-0.80Q127.45-0.84 127.45-3.19L127.45-3.19ZM136.69-6.09L136.69-6.09L135.61-6.09Q135.52-7.73 133.45-7.83L133.45-7.83Q131.53-7.78 131.53-6.33L131.53-6.33Q131.53-5.39 132.56-5.25L132.56-5.25L135-4.69Q136.92-4.22 136.92-2.34L136.92-2.34Q136.88 0.05 133.55 0.14L133.55 0.14Q131.72 0.14 130.97-0.61L130.97-0.61Q130.03-1.31 130.08-2.77L130.08-2.77L131.20-2.77Q131.25-0.80 133.55-0.75L133.55-0.75Q135.80-0.80 135.84-2.20L135.84-2.20Q136.03-3.38 133.97-3.75L133.97-3.75L132.19-4.13Q130.36-4.64 130.36-6.19L130.36-6.19Q130.50-8.72 133.36-8.81L133.36-8.81Q136.59-8.81 136.69-6.09ZM140.58-7.59L137.67-7.59L137.67-8.58L144.61-8.58L144.61-7.59L141.70-7.59L141.70 0L140.58 0L140.58-7.59ZM149.77-3.70L146.95-3.70L146.95 0L145.78 0L145.78-8.58L149.77-8.58Q152.63-8.58 152.63-6.28L152.63-6.28Q152.63-4.88 151.41-4.22L151.41-4.22Q152.44-3.94 152.44-2.58L152.44-2.58L152.53-1.03Q152.48-0.38 152.95-0.19L152.95-0.19L152.95 0L151.50 0Q151.36-0.61 151.31-2.16L151.31-2.16Q151.36-3.70 149.77-3.70L149.77-3.70ZM149.86-7.64L146.95-7.64L146.95-4.69L149.67-4.69Q151.41-4.69 151.41-6.19L151.41-6.19Q151.41-7.64 149.86-7.64L149.86-7.64ZM161.20-8.58L157.97-3.47L157.97 0L156.80 0L156.80-3.47L153.56-8.58L154.92-8.58L157.36-4.45L159.84-8.58L161.20-8.58Z" transform="translate(-0.515625, 8.8125)"></path></g></g></g></g></g><defs v-gra="od"></defs></svg>
